name analog
datacolumns 19
datarows 41
range 0.397 0.417
endheader
time	ground_force_vx	ground_force_vy	ground_force_vz	ground_force_px	ground_force_py	ground_force_pz	l_ground_force_vx	l_ground_force_vy	l_ground_force_vz	l_ground_force_px	l_ground_force_py	l_ground_force_pz	ground_torque_x	ground_torque_y	ground_torque_z	l_ground_torque_x	l_ground_torque_y	l_ground_torque_z
0.397	-0.0	-0.0	-0.0	6.601577758789063	5.22551155090332	-1011.8360595703124	-0.0	-0.0	-0.0	-0.0	-0.0	-0.0	-0.0	-0.0	-0.0	-0.0	-0.0	-0.0
0.3975	-0.0	-0.0	-0.0	5.363408088684082	6.429152488708496	-1011.9264526367188	-0.0	-0.0	-0.0	-0.0	-0.0	-0.0	-0.0	-0.0	-0.0	-0.0	-0.0	-0.0
0.398	-0.0	-0.0	-0.0	4.811723232269287	6.6123480796813965	-1012.0152587890624	-0.0	-0.0	-0.0	-0.0	-0.0	-0.0	-0.0	-0.0	-0.0	-0.0	-0.0	-0.0
0.3985	-0.0	-0.0	-0.0	4.1593217849731445	6.272670269012451	-1012.94091796875	-0.0	-0.0	-0.0	-0.0	-0.0	-0.0	-0.0	-0.0	-0.0	-0.0	-0.0	-0.0
0.399	-0.0	-0.0	-0.0	3.317633628845215	7.002659797668457	-1010.3810424804688	-0.0	-0.0	-0.0	-0.0	-0.0	-0.0	-0.0	-0.0	-0.0	-0.0	-0.0	-0.0
0.3995	-0.0	-0.0	-0.0	3.0162642002105717	6.841422080993652	-1009.0162963867188	-0.0	-0.0	-0.0	-0.0	-0.0	-0.0	-0.0	-0.0	-0.0	-0.0	-0.0	-0.0
0.4	-0.0	-0.0	-0.0	2.425649642944336	6.87999153137207	-1010.1790771484376	-0.0	-0.0	-0.0	-0.0	-0.0	-0.0	-0.0	-0.0	-0.0	-0.0	-0.0	-0.0
0.4005	-0.0	-0.0	-0.0	2.090009450912476	7.452955722808838	-1009.304443359375	-0.0	-0.0	-0.0	-0.0	-0.0	-0.0	-0.0	-0.0	-0.0	-0.0	-0.0	-0.0
0.401	-0.0	-0.0	-0.0	1.712086796760559	7.376979827880859	-1010.5154418945312	-0.0	-0.0	-0.0	-0.0	-0.0	-0.0	-0.0	-0.0	-0.0	-0.0	-0.0	-0.0
0.4015	-0.0	-0.0	-0.0	1.6743731498718262	7.740691661834717	-1012.9200439453124	-0.0	-0.0	-0.0	-0.0	-0.0	-0.0	-0.0	-0.0	-0.0	-0.0	-0.0	-0.0
0.402	-0.0	-0.0	-0.0	2.106663465499878	7.274334907531738	-1012.56689453125	-0.0	-0.0	-0.0	-0.0	-0.0	-0.0	-0.0	-0.0	-0.0	-0.0	-0.0	-0.0
0.4025	-0.0	-0.0	-0.0	2.048967123031616	5.986116409301758	-1012.63525390625	-0.0	-0.0	-0.0	-0.0	-0.0	-0.0	-0.0	-0.0	-0.0	-0.0	-0.0	-0.0
0.403	-0.0	-0.0	-0.0	2.4086837768554688	5.005972385406494	-1011.8604736328124	-0.0	-0.0	-0.0	-0.0	-0.0	-0.0	-0.0	-0.0	-0.0	-0.0	-0.0	-0.0
0.4035	-0.0	-0.0	-0.0	3.172153949737549	3.849966287612915	-1011.4385375976562	-0.0	-0.0	-0.0	-0.0	-0.0	-0.0	-0.0	-0.0	-0.0	-0.0	-0.0	-0.0
0.404	-0.0	-0.0	-0.0	5.084999084472656	2.5479464530944824	-1010.3096313476562	-0.0	-0.0	-0.0	-0.0	-0.0	-0.0	-0.0	-0.0	-0.0	-0.0	-0.0	-0.0
0.4045	-0.0	-0.0	-0.0	6.459879398345947	0.887845516204834	-1010.801025390625	-0.0	-0.0	-0.0	-0.0	-0.0	-0.0	-0.0	-0.0	-0.0	-0.0	-0.0	-0.0
0.405	-0.0	-0.0	-0.0	8.457429885864258	-1.0344587564468384	-1009.8805541992188	-0.0	-0.0	-0.0	-0.0	-0.0	-0.0	-0.0	-0.0	-0.0	-0.0	-0.0	-0.0
0.4055	-0.0	-0.0	-0.0	10.064233779907228	-2.7641148567199707	-1008.8214721679688	-0.0	-0.0	-0.0	-0.0	-0.0	-0.0	-0.0	-0.0	-0.0	-0.0	-0.0	-0.0
0.406	-0.0	-0.0	-0.0	11.204341888427734	-4.296748638153076	-1007.9755859375	-0.0	-0.0	-0.0	-0.0	-0.0	-0.0	-0.0	-0.0	-0.0	-0.0	-0.0	-0.0
0.40650000000000003	-0.0	-0.0	-0.0	11.954208374023438	-5.151830196380615	-1005.8564453125	-0.0	-0.0	-0.0	-0.0	-0.0	-0.0	-0.0	-0.0	-0.0	-0.0	-0.0	-0.0
0.40700000000000003	-0.0	-0.0	-0.0	11.918420791625977	-6.239128112792969	-1001.9002685546876	-0.0	-0.0	-0.0	-0.0	-0.0	-0.0	-0.0	-0.0	-0.0	-0.0	-0.0	-0.0
0.40750000000000003	-0.0	-0.0	-0.0	11.47244358062744	-7.077051162719727	-999.2874145507812	-0.0	-0.0	-0.0	-0.0	-0.0	-0.0	-0.0	-0.0	-0.0	-0.0	-0.0	-0.0
0.40800000000000003	-0.0	-0.0	-0.0	9.866942405700684	-8.663127899169922	-998.2977294921876	-0.0	-0.0	-0.0	-0.0	-0.0	-0.0	-0.0	-0.0	-0.0	-0.0	-0.0	-0.0
0.40850000000000003	-0.0	-0.0	-0.0	8.636117935180664	-9.0374174118042	-995.32958984375	-0.0	-0.0	-0.0	-0.0	-0.0	-0.0	-0.0	-0.0	-0.0	-0.0	-0.0	-0.0
0.40900000000000003	-0.0	-0.0	-0.0	7.869615077972412	-11.675043106079102	-993.2175903320312	-0.0	-0.0	-0.0	-0.0	-0.0	-0.0	-0.0	-0.0	-0.0	-0.0	-0.0	-0.0
0.40950000000000003	-0.0	-0.0	-0.0	7.386363506317139	-14.419700622558594	-994.6928100585938	-0.0	-0.0	-0.0	-0.0	-0.0	-0.0	-0.0	-0.0	-0.0	-0.0	-0.0	-0.0
0.41000000000000003	-0.0	-0.0	-0.0	7.011316299438477	-15.828929901123049	-995.3330078125	-0.0	-0.0	-0.0	-0.0	-0.0	-0.0	-0.0	-0.0	-0.0	-0.0	-0.0	-0.0
0.41050000000000003	-0.0	-0.0	-0.0	5.871602535247803	-17.915210723876953	-997.8776245117188	-0.0	-0.0	-0.0	-0.0	-0.0	-0.0	-0.0	-0.0	-0.0	-0.0	-0.0	-0.0
0.41100000000000003	-0.0	-0.0	-0.0	3.197753667831421	-19.03959083557129	-996.1846313476562	-0.0	-0.0	-0.0	-0.0	-0.0	-0.0	-0.0	-0.0	-0.0	-0.0	-0.0	-0.0
0.41150000000000003	-0.0	-0.0	-0.0	-0.2492947280406952	-19.839439392089844	-995.1884765625	-0.0	-0.0	-0.0	-0.0	-0.0	-0.0	-0.0	-0.0	-0.0	-0.0	-0.0	-0.0
0.41200000000000003	-0.0	-0.0	-0.0	-3.316360712051392	-19.75016212463379	-992.654296875	-0.0	-0.0	-0.0	-0.0	-0.0	-0.0	-0.0	-0.0	-0.0	-0.0	-0.0	-0.0
0.41250000000000003	-0.0	-0.0	-0.0	-6.063235759735107	-20.109664916992188	-994.33544921875	-0.0	-0.0	-0.0	-0.0	-0.0	-0.0	-0.0	-0.0	-0.0	-0.0	-0.0	-0.0
0.41300000000000003	-0.0	-0.0	-0.0	-8.634888648986816	-20.087928771972656	-996.1004638671876	-0.0	-0.0	-0.0	-0.0	-0.0	-0.0	-0.0	-0.0	-0.0	-0.0	-0.0	-0.0
0.41350000000000003	-0.0	-0.0	-0.0	-10.541693687438965	-20.336570739746094	-995.805419921875	-0.0	-0.0	-0.0	-0.0	-0.0	-0.0	-0.0	-0.0	-0.0	-0.0	-0.0	-0.0
0.41400000000000003	-0.0	-0.0	-0.0	-11.81306266784668	-20.48137092590332	-995.7460327148438	-0.0	-0.0	-0.0	-0.0	-0.0	-0.0	-0.0	-0.0	-0.0	-0.0	-0.0	-0.0
0.41450000000000004	-0.0	-0.0	-0.0	-13.269311904907228	-20.08738899230957	-994.4065551757812	-0.0	-0.0	-0.0	-0.0	-0.0	-0.0	-0.0	-0.0	-0.0	-0.0	-0.0	-0.0
0.41500000000000004	-0.0	-0.0	-0.0	-14.128162384033203	-20.26547241210937	-993.7740478515624	-0.0	-0.0	-0.0	-0.0	-0.0	-0.0	-0.0	-0.0	-0.0	-0.0	-0.0	-0.0
0.41550000000000004	-0.0	-0.0	-0.0	-15.395782470703123	-20.29805564880371	-991.7098999023438	-0.0	-0.0	-0.0	-0.0	-0.0	-0.0	-0.0	-0.0	-0.0	-0.0	-0.0	-0.0
0.41600000000000004	-0.0	-0.0	-0.0	-15.828042030334473	-19.89495277404785	-991.002197265625	-0.0	-0.0	-0.0	-0.0	-0.0	-0.0	-0.0	-0.0	-0.0	-0.0	-0.0	-0.0
0.4165	-0.0	-0.0	-0.0	-17.11496353149414	-19.52503776550293	-990.3165283203124	-0.0	-0.0	-0.0	-0.0	-0.0	-0.0	-0.0	-0.0	-0.0	-0.0	-0.0	-0.0
0.417	-0.0	-0.0	-0.0	-18.925790786743164	-19.335453033447266	-989.8649291992188	-0.0	-0.0	-0.0	-0.0	-0.0	-0.0	-0.0	-0.0	-0.0	-0.0	-0.0	-0.0
